<svg xmlns="http://www.w3.org/2000/svg" xmlns:xlink="http://www.w3.org/1999/xlink" width="1905" zoomAndPan="magnify" viewBox="0 0 1428.75 749.999995" height="1000" preserveAspectRatio="xMidYMid meet" version="1.0"><defs><clipPath id="9bd5b42d9c"><path d="M 0 0.0664062 L 1428 0.0664062 L 1428 749.929688 L 0 749.929688 Z M 0 0.0664062 " clip-rule="nonzero"/></clipPath><clipPath id="a18656d11c"><path d="M 0.511719 0.0664062 L 1427.96875 0.0664062 L 1427.96875 749.929688 L 0.511719 749.929688 Z M 0.511719 0.0664062 " clip-rule="nonzero"/></clipPath><clipPath id="32c913c436"><rect x="0" width="1428" y="0" height="750"/></clipPath></defs><g clip-path="url(#9bd5b42d9c)"><g transform="matrix(1, 0, 0, 1, 0, -0.000000000000021247)"><g clip-path="url(#32c913c436)"><g clip-path="url(#a18656d11c)"><path fill="#678475" d="M 968.847656 81.042969 C 928.925781 114.136719 900.078125 163.996094 908.382812 217.230469 C 912.503906 243.667969 923.304688 268.382812 930.585938 294.019531 C 939.050781 238.070312 958.992188 183.71875 991.214844 137.054688 C 994.09375 132.882812 1000.671875 136.550781 998.101562 141.078125 C 970.273438 189.953125 949.285156 243.679688 942.199219 299.691406 C 981.347656 273.03125 1016.828125 240.074219 1027.542969 192.21875 C 1034.269531 168.386719 1038.355469 143.871094 1045.984375 120.273438 C 1060.007812 82.753906 1079.1875 44.441406 1106.585938 15.164062 C 1058.210938 31.144531 1008.238281 48.367188 968.847656 81.042969 Z M 679.3125 491.300781 C 745.191406 436.6875 707.570312 333.621094 759.117188 271.382812 C 717.917969 289.554688 691.371094 328.578125 672.09375 368.335938 C 652.457031 408.835938 629.585938 458.179688 645.199219 503.121094 C 670.46875 468.257812 688.035156 425.726562 694.125 383.148438 C 694.667969 377.40625 700.535156 377.601562 700.203125 383.519531 C 697.953125 429.75 681.378906 475.035156 652.789062 511.5 C 661.4375 504.734375 671.109375 498.777344 679.3125 491.300781 Z M 412.785156 535.007812 C 450.675781 524.492188 485.230469 502.738281 511.324219 473.351562 C 543.558594 437.046875 555.035156 380.46875 596.480469 353.859375 C 546.695312 367.84375 495.578125 375.105469 450.476562 399.953125 C 409.722656 427.03125 395.574219 488.566406 384.785156 533.792969 C 400.800781 517.269531 412.453125 497.386719 427.988281 480.472656 C 446.097656 460.394531 468.339844 446.125 490.964844 431.792969 C 494.753906 429.394531 497.878906 435.140625 494.410156 437.6875 C 473.25 453.273438 451.535156 469.488281 434.644531 489.796875 C 421.851562 505.359375 411.257812 522.582031 398.722656 538.355469 C 403.445312 537.382812 408.144531 536.300781 412.785156 535.007812 Z M 648.730469 730.417969 C 691.0625 742.574219 736.828125 741.503906 778.875 728.683594 C 808.042969 719.777344 833.191406 702.886719 861.140625 691.210938 C 883.015625 682.070312 905.550781 676.695312 928.730469 674.0625 C 903.042969 672.78125 877.796875 669.214844 852.738281 662.375 C 820.949219 655.019531 792.40625 636.996094 759.90625 632.75 C 708.667969 628 637.140625 662.4375 610.261719 706.429688 C 634.027344 711.828125 657.5 698.839844 680.765625 695.0625 C 709.355469 688.875 738.265625 686.167969 767.421875 684.222656 C 769.230469 684.101562 769.144531 686.78125 767.421875 686.992188 C 735.449219 690.84375 703.585938 698.234375 672.546875 706.738281 C 654.289062 711.71875 637.386719 718.621094 618 718.867188 C 627.851562 723.628906 638.1875 727.429688 648.730469 730.417969 Z M 1072.726562 508.546875 C 1125.480469 486.871094 1172.992188 454.195312 1223.234375 427.449219 C 1198.050781 431.582031 1172.683594 434.289062 1147.167969 430.871094 C 1116.082031 426.6875 1086.234375 415.652344 1054.953125 412.773438 C 1024.378906 409.96875 991.753906 413.277344 963.152344 424.929688 C 939.25 433.492188 926.109375 456.101562 906.476562 470.53125 C 978.617188 481.308594 1053.882812 471.910156 1122.773438 448.214844 C 1125.996094 447.085938 1127.140625 451.96875 1124.152344 453.222656 C 1056.992188 481.40625 984.152344 490.84375 911.925781 482.75 C 950.949219 528.597656 1018.953125 528.945312 1072.726562 508.546875 Z M 1231.585938 275.234375 C 1309.324219 239.273438 1347.636719 158.410156 1405.515625 99.828125 C 1282.863281 113.65625 1113.867188 166.492188 1054.9375 284.042969 C 1084.15625 283.132812 1110.816406 269.082031 1136.578125 256.558594 C 1167 241.476562 1197.339844 225.828125 1226.320312 208.101562 C 1229.039062 206.441406 1231.316406 210.535156 1228.78125 212.320312 C 1179.4375 246.054688 1128.742188 279.859375 1069.949219 294.523438 C 1124.261719 300.625 1181.847656 298.191406 1231.585938 275.234375 Z M 1133.464844 5.554688 C 1111.8125 14.832031 1100.320312 37.996094 1089.679688 57.691406 C 1076.738281 81.644531 1064.410156 105.867188 1057.117188 132.207031 C 1044.175781 178.945312 1040.433594 228.828125 1005.777344 265.996094 C 984.140625 288.199219 958.121094 308.855469 931.484375 324.417969 C 923.007812 348.667969 915.394531 373.503906 902.933594 396.066406 C 949.375 363.859375 994.460938 329.632812 1038.144531 293.882812 C 1094.589844 153.871094 1284.488281 98.78125 1421.964844 85.949219 C 1427.230469 85.472656 1429.949219 92.902344 1426.269531 96.296875 C 1382.757812 136.179688 1352.371094 187.53125 1311.859375 230.058594 C 1246.054688 305.203125 1137.277344 321.097656 1044.089844 298.449219 C 973.003906 363.648438 892.980469 418.628906 810.898438 469.042969 C 837.347656 465.441406 864.09375 467.261719 890.582031 469.4375 C 902.207031 462.328125 915.824219 446.765625 925.003906 437.648438 C 956.433594 406.894531 1004.636719 400.59375 1046.820312 402.265625 C 1077.722656 404.101562 1106.65625 414.210938 1136.664062 420.746094 C 1170.972656 428.226562 1206.304688 423.230469 1240.851562 419.21875 C 1262.171875 418.421875 1225.152344 439.492188 1218.695312 442.890625 C 1181.039062 464.011719 1144.277344 486.882812 1105.796875 506.492188 C 1033.546875 544.652344 939.359375 548.910156 888.882812 474.335938 C 856.566406 474.394531 823.851562 475.070312 792.148438 480.484375 C 661.351562 557.484375 525.792969 627.816406 384.046875 682.476562 C 453.210938 700.316406 524.253906 708.925781 595.683594 708.59375 C 623.410156 650.085938 713.785156 608.160156 776.511719 623.105469 C 803.125 629.910156 827.667969 643.722656 854.042969 651.609375 C 884.957031 660.847656 920.042969 670.039062 952.238281 672.300781 C 954.910156 672.179688 955.105469 676.386719 952.238281 676.695312 C 919.355469 679.929688 886.175781 689.550781 856.292969 703.585938 C 828.074219 716.835938 802.347656 733.074219 771.925781 741.332031 C 712.371094 756.300781 643.6875 754.089844 592.828125 715.691406 C 517.625 717.121094 441.902344 708.398438 369.554688 687.730469 C 254.320312 728.671875 127.949219 753.003906 6.121094 731.144531 C -3.796875 729.3125 0.609375 714.894531 10.214844 716.246094 C 74.066406 725.238281 137.644531 724.597656 200.949219 715.53125 C 271.703125 677.46875 332.929688 619.414062 369.34375 547.324219 C 375.027344 499.246094 397.984375 420.242188 439.640625 392.117188 C 461.5625 377.539062 488.171875 371.117188 513.28125 364.414062 C 545.144531 355.914062 577.203125 348.617188 609.695312 342.96875 C 615.265625 342.035156 622.390625 349.269531 616.707031 353.046875 C 588.671875 366.085938 572.921875 395.390625 559.5 421.679688 C 546.570312 447.011719 532.84375 470.9375 512.703125 491.300781 C 477.640625 526.25 430.230469 550.769531 380.566406 554.679688 C 343.238281 619.28125 290.84375 675.007812 225.554688 711.582031 C 306.457031 697.4375 384.585938 670.050781 460.023438 638.027344 C 504.300781 619.144531 547.851562 598.453125 590.945312 576.898438 C 611.664062 563.15625 624.027344 540.742188 638.382812 521.105469 C 611.601562 469.792969 635.640625 411.984375 659.347656 364.375 C 682.167969 318.539062 721.707031 269.070312 774.53125 256.546875 C 778.988281 254.898438 784.671875 260.089844 780.214844 264.46875 C 706.746094 339.5 777.695312 476.425781 649.664062 522.890625 C 640.96875 534.703125 634.066406 547.949219 625.046875 559.636719 C 710.316406 516.113281 793.910156 469.105469 873.628906 416.019531 C 900.460938 387.222656 908.382812 353.832031 922.824219 318.613281 C 908.355469 261.023438 876.125 205.640625 903.152344 146.070312 C 940.355469 56.289062 1038.121094 21.4375 1126.414062 2.0625 C 1127.976562 1.386719 1129.492188 0.621094 1131.152344 0.0546875 C 1134.324219 -1.050781 1136.613281 4.203125 1133.464844 5.554688 " fill-opacity="1" fill-rule="nonzero"/></g></g></g></g></svg>