<svg xmlns="http://www.w3.org/2000/svg" xmlns:xlink="http://www.w3.org/1999/xlink" width="1905" zoomAndPan="magnify" viewBox="0 0 1428.75 749.999995" height="1000" preserveAspectRatio="xMidYMid meet" version="1.0"><defs><filter x="0%" y="0%" width="100%" height="100%" id="3b5485ed92"><feColorMatrix values="0 0 0 0 1 0 0 0 0 1 0 0 0 0 1 0 0 0 1 0" color-interpolation-filters="sRGB"/></filter><g/><clipPath id="90d861d20f"><path d="M 0 0.0664062 L 1428 0.0664062 L 1428 749.933594 L 0 749.933594 Z M 0 0.0664062 " clip-rule="nonzero"/></clipPath><mask id="80ab4f42a7"><g filter="url(#3b5485ed92)"><rect x="-142.875" width="1714.5" fill="#000000" y="-74.999999" height="899.999994" fill-opacity="0.4"/></g></mask><clipPath id="f221590b6b"><path d="M 0 0.0664062 L 1427.988281 0.0664062 L 1427.988281 749.929688 L 0 749.929688 Z M 0 0.0664062 " clip-rule="nonzero"/></clipPath><clipPath id="e10d53158d"><path d="M 0.511719 0.0664062 L 1427.96875 0.0664062 L 1427.96875 749.929688 L 0.511719 749.929688 Z M 0.511719 0.0664062 " clip-rule="nonzero"/></clipPath><clipPath id="2f265d6138"><rect x="0" width="1428" y="0" height="750"/></clipPath><clipPath id="a13e43c704"><rect x="0" width="1428" y="0" height="750"/></clipPath><clipPath id="ddd490c761"><rect x="0" width="1296" y="0" height="494"/></clipPath></defs><g clip-path="url(#90d861d20f)"><g mask="url(#80ab4f42a7)"><g transform="matrix(1, 0, 0, 1, 0, -0.000000000000021247)"><g clip-path="url(#a13e43c704)"><g clip-path="url(#f221590b6b)"><g transform="matrix(1, 0, 0, 1, 0, -0.000000000000021247)"><g clip-path="url(#2f265d6138)"><g clip-path="url(#e10d53158d)"><path fill="#678475" d="M 968.847656 81.042969 C 928.925781 114.136719 900.078125 163.996094 908.382812 217.230469 C 912.503906 243.667969 923.304688 268.382812 930.585938 294.019531 C 939.050781 238.070312 958.992188 183.71875 991.214844 137.054688 C 994.09375 132.882812 1000.671875 136.550781 998.101562 141.078125 C 970.273438 189.953125 949.285156 243.679688 942.199219 299.691406 C 981.347656 273.03125 1016.828125 240.074219 1027.542969 192.21875 C 1034.269531 168.386719 1038.355469 143.871094 1045.984375 120.273438 C 1060.007812 82.753906 1079.1875 44.441406 1106.585938 15.164062 C 1058.210938 31.144531 1008.238281 48.367188 968.847656 81.042969 Z M 679.3125 491.300781 C 745.191406 436.6875 707.570312 333.621094 759.117188 271.382812 C 717.917969 289.554688 691.371094 328.578125 672.09375 368.335938 C 652.457031 408.835938 629.585938 458.179688 645.199219 503.121094 C 670.46875 468.257812 688.035156 425.726562 694.125 383.148438 C 694.667969 377.40625 700.535156 377.601562 700.203125 383.519531 C 697.953125 429.75 681.378906 475.035156 652.789062 511.5 C 661.4375 504.734375 671.109375 498.777344 679.3125 491.300781 Z M 412.785156 535.007812 C 450.675781 524.492188 485.230469 502.738281 511.324219 473.351562 C 543.558594 437.046875 555.035156 380.46875 596.480469 353.859375 C 546.695312 367.84375 495.578125 375.105469 450.476562 399.953125 C 409.722656 427.03125 395.574219 488.566406 384.785156 533.792969 C 400.800781 517.269531 412.453125 497.386719 427.988281 480.472656 C 446.097656 460.394531 468.339844 446.125 490.964844 431.792969 C 494.753906 429.394531 497.878906 435.140625 494.410156 437.6875 C 473.25 453.273438 451.535156 469.488281 434.644531 489.796875 C 421.851562 505.359375 411.257812 522.582031 398.722656 538.355469 C 403.445312 537.382812 408.144531 536.300781 412.785156 535.007812 Z M 648.730469 730.417969 C 691.0625 742.574219 736.828125 741.503906 778.875 728.683594 C 808.042969 719.777344 833.191406 702.886719 861.140625 691.210938 C 883.015625 682.070312 905.550781 676.695312 928.730469 674.0625 C 903.042969 672.78125 877.796875 669.214844 852.738281 662.375 C 820.949219 655.019531 792.40625 636.996094 759.90625 632.75 C 708.667969 628 637.140625 662.4375 610.261719 706.429688 C 634.027344 711.828125 657.5 698.839844 680.765625 695.0625 C 709.355469 688.875 738.265625 686.167969 767.421875 684.222656 C 769.230469 684.101562 769.144531 686.78125 767.421875 686.992188 C 735.449219 690.84375 703.585938 698.234375 672.546875 706.738281 C 654.289062 711.71875 637.386719 718.621094 618 718.867188 C 627.851562 723.628906 638.1875 727.429688 648.730469 730.417969 Z M 1072.726562 508.546875 C 1125.480469 486.871094 1172.992188 454.195312 1223.234375 427.449219 C 1198.050781 431.582031 1172.683594 434.289062 1147.167969 430.871094 C 1116.082031 426.6875 1086.234375 415.652344 1054.953125 412.773438 C 1024.378906 409.96875 991.753906 413.277344 963.152344 424.929688 C 939.25 433.492188 926.109375 456.101562 906.476562 470.53125 C 978.617188 481.308594 1053.882812 471.910156 1122.773438 448.214844 C 1125.996094 447.085938 1127.140625 451.96875 1124.152344 453.222656 C 1056.992188 481.40625 984.152344 490.84375 911.925781 482.75 C 950.949219 528.597656 1018.953125 528.945312 1072.726562 508.546875 Z M 1231.585938 275.234375 C 1309.324219 239.273438 1347.636719 158.410156 1405.515625 99.828125 C 1282.863281 113.65625 1113.867188 166.492188 1054.9375 284.042969 C 1084.15625 283.132812 1110.816406 269.082031 1136.578125 256.558594 C 1167 241.476562 1197.339844 225.828125 1226.320312 208.101562 C 1229.039062 206.441406 1231.316406 210.535156 1228.78125 212.320312 C 1179.4375 246.054688 1128.742188 279.859375 1069.949219 294.523438 C 1124.261719 300.625 1181.847656 298.191406 1231.585938 275.234375 Z M 1133.464844 5.554688 C 1111.8125 14.832031 1100.320312 37.996094 1089.679688 57.691406 C 1076.738281 81.644531 1064.410156 105.867188 1057.117188 132.207031 C 1044.175781 178.945312 1040.433594 228.828125 1005.777344 265.996094 C 984.140625 288.199219 958.121094 308.855469 931.484375 324.417969 C 923.007812 348.667969 915.394531 373.503906 902.933594 396.066406 C 949.375 363.859375 994.460938 329.632812 1038.144531 293.882812 C 1094.589844 153.871094 1284.488281 98.78125 1421.964844 85.949219 C 1427.230469 85.472656 1429.949219 92.902344 1426.269531 96.296875 C 1382.757812 136.179688 1352.371094 187.53125 1311.859375 230.058594 C 1246.054688 305.203125 1137.277344 321.097656 1044.089844 298.449219 C 973.003906 363.648438 892.980469 418.628906 810.898438 469.042969 C 837.347656 465.441406 864.09375 467.261719 890.582031 469.4375 C 902.207031 462.328125 915.824219 446.765625 925.003906 437.648438 C 956.433594 406.894531 1004.636719 400.59375 1046.820312 402.265625 C 1077.722656 404.101562 1106.65625 414.210938 1136.664062 420.746094 C 1170.972656 428.226562 1206.304688 423.230469 1240.851562 419.21875 C 1262.171875 418.421875 1225.152344 439.492188 1218.695312 442.890625 C 1181.039062 464.011719 1144.277344 486.882812 1105.796875 506.492188 C 1033.546875 544.652344 939.359375 548.910156 888.882812 474.335938 C 856.566406 474.394531 823.851562 475.070312 792.148438 480.484375 C 661.351562 557.484375 525.792969 627.816406 384.046875 682.476562 C 453.210938 700.316406 524.253906 708.925781 595.683594 708.59375 C 623.410156 650.085938 713.785156 608.160156 776.511719 623.105469 C 803.125 629.910156 827.667969 643.722656 854.042969 651.609375 C 884.957031 660.847656 920.042969 670.039062 952.238281 672.300781 C 954.910156 672.179688 955.105469 676.386719 952.238281 676.695312 C 919.355469 679.929688 886.175781 689.550781 856.292969 703.585938 C 828.074219 716.835938 802.347656 733.074219 771.925781 741.332031 C 712.371094 756.300781 643.6875 754.089844 592.828125 715.691406 C 517.625 717.121094 441.902344 708.398438 369.554688 687.730469 C 254.320312 728.671875 127.949219 753.003906 6.121094 731.144531 C -3.796875 729.3125 0.609375 714.894531 10.214844 716.246094 C 74.066406 725.238281 137.644531 724.597656 200.949219 715.53125 C 271.703125 677.46875 332.929688 619.414062 369.34375 547.324219 C 375.027344 499.246094 397.984375 420.242188 439.640625 392.117188 C 461.5625 377.539062 488.171875 371.117188 513.28125 364.414062 C 545.144531 355.914062 577.203125 348.617188 609.695312 342.96875 C 615.265625 342.035156 622.390625 349.269531 616.707031 353.046875 C 588.671875 366.085938 572.921875 395.390625 559.5 421.679688 C 546.570312 447.011719 532.84375 470.9375 512.703125 491.300781 C 477.640625 526.25 430.230469 550.769531 380.566406 554.679688 C 343.238281 619.28125 290.84375 675.007812 225.554688 711.582031 C 306.457031 697.4375 384.585938 670.050781 460.023438 638.027344 C 504.300781 619.144531 547.851562 598.453125 590.945312 576.898438 C 611.664062 563.15625 624.027344 540.742188 638.382812 521.105469 C 611.601562 469.792969 635.640625 411.984375 659.347656 364.375 C 682.167969 318.539062 721.707031 269.070312 774.53125 256.546875 C 778.988281 254.898438 784.671875 260.089844 780.214844 264.46875 C 706.746094 339.5 777.695312 476.425781 649.664062 522.890625 C 640.96875 534.703125 634.066406 547.949219 625.046875 559.636719 C 710.316406 516.113281 793.910156 469.105469 873.628906 416.019531 C 900.460938 387.222656 908.382812 353.832031 922.824219 318.613281 C 908.355469 261.023438 876.125 205.640625 903.152344 146.070312 C 940.355469 56.289062 1038.121094 21.4375 1126.414062 2.0625 C 1127.976562 1.386719 1129.492188 0.621094 1131.152344 0.0546875 C 1134.324219 -1.050781 1136.613281 4.203125 1133.464844 5.554688 " fill-opacity="1" fill-rule="nonzero"/></g></g></g></g></g></g></g></g><g transform="matrix(1, 0, 0, 1, 0, 218)"><g clip-path="url(#ddd490c761)"><g fill="#000000" fill-opacity="1"><g transform="translate(0, 371.712727)"><g><path d="M 130.734375 -128.1875 C 131.046875 -136.84375 129 -142.210938 124.59375 -144.296875 C 120.1875 -146.378906 110.875 -145.800781 96.65625 -142.5625 C 74.71875 -137.300781 55.09375 -142.164062 37.78125 -157.15625 C 20.476562 -172.144531 11.828125 -194.476562 11.828125 -224.15625 C 11.972656 -253.664062 22.707031 -279.160156 44.03125 -300.640625 C 65.363281 -322.128906 90.863281 -332.875 120.53125 -332.875 C 133.976562 -332.875 148.582031 -329.550781 164.34375 -322.90625 C 180.113281 -316.257812 193.5625 -306.367188 204.6875 -293.234375 C 205.613281 -291.992188 206.613281 -291.453125 207.6875 -291.609375 C 208.769531 -291.765625 209.703125 -292.460938 210.484375 -293.703125 C 217.273438 -304.828125 226.039062 -314.175781 236.78125 -321.75 C 247.519531 -329.320312 261.78125 -332.875 279.5625 -332.40625 C 302.582031 -331.320312 323.210938 -317.101562 341.453125 -289.75 C 342.378906 -288.363281 343.535156 -287.671875 344.921875 -287.671875 C 346.316406 -287.671875 347.398438 -288.441406 348.171875 -289.984375 C 354.660156 -302.035156 362.847656 -311.925781 372.734375 -319.65625 C 382.628906 -327.382812 394.992188 -331.25 409.828125 -331.25 C 428.835938 -330.9375 444.523438 -325.140625 456.890625 -313.859375 C 469.253906 -302.578125 478.21875 -283.648438 483.78125 -257.078125 C 487.175781 -238.679688 494.28125 -228.941406 505.09375 -227.859375 C 508.1875 -227.703125 509.847656 -226.390625 510.078125 -223.921875 C 510.316406 -221.453125 508.425781 -219.597656 504.40625 -218.359375 C 474.425781 -208.160156 453.796875 -191.816406 442.515625 -169.328125 C 431.234375 -146.847656 431.695312 -118.222656 443.90625 -83.453125 C 449.3125 -67.691406 457.078125 -56.601562 467.203125 -50.1875 C 477.328125 -43.769531 488.414062 -44.269531 500.46875 -51.6875 C 504.945312 -54.320312 508.304688 -54.285156 510.546875 -51.578125 C 512.785156 -48.867188 512.359375 -46.203125 509.265625 -43.578125 C 498.765625 -35.234375 488.375 -26.925781 478.09375 -18.65625 C 467.820312 -10.394531 457.507812 -2.164062 447.15625 6.03125 C 445.445312 7.257812 443.820312 7.257812 442.28125 6.03125 C 409.363281 -20.394531 389.539062 -49.753906 382.8125 -82.046875 C 376.09375 -114.347656 397.382812 -152.597656 446.6875 -196.796875 C 447.769531 -197.878906 448.269531 -198.960938 448.1875 -200.046875 C 448.113281 -201.128906 447.378906 -202.054688 445.984375 -202.828125 C 435.171875 -210.085938 427.210938 -228.707031 422.109375 -258.6875 C 416.703125 -288.363281 404.648438 -303.351562 385.953125 -303.65625 C 372.660156 -303.96875 361.378906 -294.234375 352.109375 -274.453125 C 351.492188 -273.367188 351.492188 -272.285156 352.109375 -271.203125 C 358.140625 -258.378906 362.503906 -244.085938 365.203125 -228.328125 C 367.910156 -212.566406 368.03125 -195.875 365.5625 -178.25 C 359.375 -135.601562 350.210938 -103.421875 338.078125 -81.703125 C 325.953125 -59.992188 311.546875 -38.320312 294.859375 -16.6875 C 272.753906 10.96875 251.890625 13.976562 232.265625 -7.65625 C 226.703125 -13.832031 220.867188 -17.847656 214.765625 -19.703125 C 208.660156 -21.554688 201.664062 -19.394531 193.78125 -13.21875 C 190.851562 -10.738281 188.34375 -10.460938 186.25 -12.390625 C 184.164062 -14.328125 184.285156 -16.765625 186.609375 -19.703125 C 206.378906 -47.210938 222.097656 -62.894531 233.765625 -66.75 C 245.441406 -70.613281 256.84375 -67.375 267.96875 -57.03125 C 277.082031 -48.53125 285.460938 -43.96875 293.109375 -43.34375 C 300.765625 -42.726562 306.753906 -48.445312 311.078125 -60.5 C 319.421875 -83.675781 322.394531 -116.085938 320 -157.734375 C 317.601562 -199.390625 309.179688 -231.34375 294.734375 -253.59375 C 280.285156 -275.84375 266.53125 -288.9375 253.46875 -292.875 C 240.414062 -296.820312 228.554688 -293.382812 217.890625 -282.5625 C 216.347656 -281.019531 216.269531 -279.398438 217.65625 -277.703125 C 236.050781 -252.203125 245.941406 -222.6875 247.328125 -189.15625 C 248.253906 -161.644531 242.921875 -135.253906 231.328125 -109.984375 C 219.742188 -84.722656 204.835938 -60.503906 186.609375 -37.328125 C 166.671875 -11.972656 147.773438 2.554688 129.921875 6.265625 C 112.078125 9.972656 95.738281 0.929688 80.90625 -20.859375 C 67.914062 -40.328125 54.703125 -42.722656 41.265625 -28.046875 C 38.015625 -25.265625 35.113281 -25.1875 32.5625 -27.8125 C 30.019531 -30.4375 30.367188 -33.453125 33.609375 -36.859375 C 75.796875 -79.816406 108.945312 -85.457031 133.0625 -53.78125 C 136.914062 -48.519531 140.582031 -43.648438 144.0625 -39.171875 C 147.539062 -34.691406 152.757812 -32.609375 159.71875 -32.921875 C 168.675781 -33.222656 178.097656 -43.03125 187.984375 -62.34375 C 197.878906 -81.664062 202.828125 -106.007812 202.828125 -135.375 C 202.515625 -173.851562 192.46875 -207.578125 172.6875 -236.546875 C 152.90625 -265.523438 130.269531 -281.40625 104.78125 -284.1875 C 79.28125 -286.8125 59.1875 -282.019531 44.5 -269.8125 C 29.820312 -257.601562 22.71875 -243.15625 23.1875 -226.46875 C 23.644531 -209.46875 28.160156 -195.867188 36.734375 -185.671875 C 45.316406 -175.472656 61.195312 -173.390625 84.375 -179.421875 C 129.039062 -190.847656 148.4375 -174.390625 142.5625 -130.046875 C 141.9375 -125.410156 139.804688 -123.050781 136.171875 -122.96875 C 132.546875 -122.894531 130.734375 -124.632812 130.734375 -128.1875 Z M 130.734375 -128.1875 "/></g></g><g transform="translate(525.031778, 371.712727)"><g><path d="M 38.25 -54.46875 L 36.625 -181.5 C 36.625 -184.4375 36.160156 -186.832031 35.234375 -188.6875 C 31.523438 -194.71875 28.359375 -196.1875 25.734375 -193.09375 L 16.453125 -183.59375 C 13.984375 -180.8125 11.628906 -180.5 9.390625 -182.65625 C 7.148438 -184.820312 7.5 -187.835938 10.4375 -191.703125 C 17.226562 -200.203125 23.328125 -208.703125 28.734375 -217.203125 C 34.148438 -225.703125 39.71875 -234.125 45.4375 -242.46875 C 47.90625 -245.40625 50.765625 -245.328125 54.015625 -242.234375 C 60.503906 -234.347656 66.835938 -227.429688 73.015625 -221.484375 C 79.203125 -215.535156 88.007812 -209.238281 99.4375 -202.59375 C 102.6875 -201.351562 104.117188 -199.882812 103.734375 -198.1875 C 103.347656 -196.488281 102.304688 -195.5625 100.609375 -195.40625 C 96.585938 -193.863281 93.03125 -191.195312 89.9375 -187.40625 C 86.84375 -183.625 85.296875 -177.328125 85.296875 -168.515625 L 85.296875 -70.46875 C 85.296875 -54.707031 88.234375 -45.050781 94.109375 -41.5 C 100.910156 -37.476562 106.472656 -39.175781 110.796875 -46.59375 C 112.347656 -49.53125 114.242188 -50.1875 116.484375 -48.5625 C 118.722656 -46.9375 118.679688 -44.269531 116.359375 -40.5625 C 111.722656 -33.300781 107.394531 -26 103.375 -18.65625 C 99.363281 -11.320312 95.269531 -4.019531 91.09375 3.25 C 88.15625 7.570312 84.523438 8.5 80.203125 6.03125 C 66.296875 -0.613281 55.828125 -8.726562 48.796875 -18.3125 C 41.765625 -27.894531 38.25 -39.945312 38.25 -54.46875 Z M 71.859375 -329.625 C 89.015625 -329.625 96.816406 -321.359375 95.265625 -304.828125 C 94.335938 -296.484375 89.125 -288.097656 79.625 -279.671875 C 70.125 -271.242188 62.59375 -267.109375 57.03125 -267.265625 C 51.457031 -267.265625 47.203125 -271.671875 44.265625 -280.484375 C 41.335938 -289.296875 40.179688 -297.410156 40.796875 -304.828125 C 41.265625 -311.929688 44.703125 -317.835938 51.109375 -322.546875 C 57.523438 -327.265625 64.441406 -329.625 71.859375 -329.625 Z M 71.859375 -329.625 "/></g></g><g transform="translate(654.609158, 371.712727)"><g><path d="M 93.875 -182.203125 L 93.65625 -83.90625 C 93.5 -58.71875 98.132812 -44.425781 107.5625 -41.03125 C 108.632812 -40.101562 109.171875 -39.019531 109.171875 -37.78125 C 109.171875 -36.539062 108.632812 -35.535156 107.5625 -34.765625 C 93.957031 -24.722656 82.675781 -10.894531 73.71875 6.71875 C 72.789062 8.113281 71.59375 8.8125 70.125 8.8125 C 68.65625 8.8125 67.535156 8.113281 66.765625 6.71875 C 57.796875 -10.738281 46.050781 -24.488281 31.53125 -34.53125 C 30.601562 -35.457031 30.140625 -36.539062 30.140625 -37.78125 C 30.140625 -39.019531 30.675781 -40.101562 31.75 -41.03125 C 42.101562 -44.425781 47.128906 -58.71875 46.828125 -83.90625 L 46.828125 -165.734375 C 46.828125 -181.503906 43.890625 -191.164062 38.015625 -194.71875 C 31.210938 -199.195312 25.648438 -197.570312 21.328125 -189.84375 C 19.628906 -186.601562 17.65625 -185.71875 15.40625 -187.1875 C 13.164062 -188.65625 13.285156 -191.472656 15.765625 -195.640625 C 20.242188 -202.753906 24.53125 -210.019531 28.625 -217.4375 C 32.71875 -224.851562 36.929688 -232.269531 41.265625 -239.6875 C 43.734375 -244.164062 47.207031 -245.09375 51.6875 -242.46875 L 51.921875 -242.234375 C 74.171875 -231.265625 87.617188 -217.664062 92.265625 -201.4375 C 92.722656 -199.894531 93.570312 -199.046875 94.8125 -198.890625 C 96.039062 -198.421875 97.273438 -198.570312 98.515625 -199.34375 C 106.085938 -205.84375 114.082031 -212.835938 122.5 -220.328125 C 130.925781 -227.828125 136.765625 -234.28125 140.015625 -239.6875 C 142.484375 -244.007812 145.878906 -244.9375 150.203125 -242.46875 C 172.460938 -231.5 185.988281 -218.128906 190.78125 -202.359375 C 191.394531 -200.203125 192.316406 -199.125 193.546875 -199.125 C 194.785156 -199.125 195.867188 -199.585938 196.796875 -200.515625 C 205.140625 -207.304688 213.367188 -214.375 221.484375 -221.71875 C 229.597656 -229.0625 235.28125 -235.976562 238.53125 -242.46875 C 240.226562 -246.488281 243.007812 -246.410156 246.875 -242.234375 C 256.144531 -232.492188 264.101562 -224.765625 270.75 -219.046875 C 277.394531 -213.335938 288.597656 -209.09375 304.359375 -206.3125 C 306.671875 -205.84375 307.90625 -204.835938 308.0625 -203.296875 C 308.0625 -200.660156 307.210938 -199.269531 305.515625 -199.125 C 301.492188 -197.570312 297.9375 -194.898438 294.84375 -191.109375 C 291.757812 -187.328125 290.21875 -181.035156 290.21875 -172.234375 L 290.21875 -71.390625 C 290.21875 -55.628906 293.15625 -45.972656 299.03125 -42.421875 C 305.820312 -38.398438 311.382812 -40.097656 315.71875 -47.515625 C 317.257812 -50.453125 319.148438 -51.109375 321.390625 -49.484375 C 323.628906 -47.867188 323.671875 -45.207031 321.515625 -41.5 C 316.878906 -34.226562 312.472656 -26.921875 308.296875 -19.578125 C 304.128906 -12.242188 299.957031 -4.945312 295.78125 2.3125 C 293 6.644531 289.519531 7.648438 285.34375 5.328125 C 271.28125 -1.472656 260.734375 -9.816406 253.703125 -19.703125 C 246.671875 -29.585938 243.15625 -41.410156 243.15625 -55.171875 L 243.390625 -176.640625 C 243.390625 -181.273438 242.15625 -184.441406 239.6875 -186.140625 L 220.21875 -202.359375 C 218.363281 -203.597656 216.507812 -203.675781 214.65625 -202.59375 C 204.601562 -194.863281 198.414062 -190.035156 196.09375 -188.109375 C 193.78125 -186.179688 192.625 -184.054688 192.625 -181.734375 L 192.390625 -83.90625 C 192.390625 -58.5625 197.101562 -44.269531 206.53125 -41.03125 C 207.613281 -39.945312 208.15625 -38.898438 208.15625 -37.890625 C 208.15625 -36.890625 207.613281 -35.847656 206.53125 -34.765625 C 192.9375 -25.035156 181.582031 -11.207031 172.46875 6.71875 C 171.539062 8.113281 170.300781 8.8125 168.75 8.8125 C 167.207031 8.8125 166.203125 8.113281 165.734375 6.71875 C 156.929688 -10.4375 145.1875 -24.1875 130.5 -34.53125 C 129.425781 -35.3125 128.890625 -36.316406 128.890625 -37.546875 C 128.890625 -38.785156 129.425781 -39.945312 130.5 -41.03125 C 141.476562 -44.425781 146.578125 -58.71875 145.796875 -83.90625 L 145.578125 -165.734375 C 145.578125 -177.171875 142.640625 -186.832031 136.765625 -194.71875 C 129.503906 -204.300781 122.164062 -206.15625 114.75 -200.28125 L 95.265625 -185.4375 L 94.34375 -184.046875 Z M 93.875 -182.203125 "/></g></g><g transform="translate(991.417625, 371.712727)"><g><path d="M 38.25 -54.46875 L 36.625 -181.5 C 36.625 -184.4375 36.160156 -186.832031 35.234375 -188.6875 C 31.523438 -194.71875 28.359375 -196.1875 25.734375 -193.09375 L 16.453125 -183.59375 C 13.984375 -180.8125 11.628906 -180.5 9.390625 -182.65625 C 7.148438 -184.820312 7.5 -187.835938 10.4375 -191.703125 C 17.226562 -200.203125 23.328125 -208.703125 28.734375 -217.203125 C 34.148438 -225.703125 39.71875 -234.125 45.4375 -242.46875 C 47.90625 -245.40625 50.765625 -245.328125 54.015625 -242.234375 C 60.503906 -234.347656 66.835938 -227.429688 73.015625 -221.484375 C 79.203125 -215.535156 88.007812 -209.238281 99.4375 -202.59375 C 102.6875 -201.351562 104.117188 -199.882812 103.734375 -198.1875 C 103.347656 -196.488281 102.304688 -195.5625 100.609375 -195.40625 C 96.585938 -193.863281 93.03125 -191.195312 89.9375 -187.40625 C 86.84375 -183.625 85.296875 -177.328125 85.296875 -168.515625 L 85.296875 -70.46875 C 85.296875 -54.707031 88.234375 -45.050781 94.109375 -41.5 C 100.910156 -37.476562 106.472656 -39.175781 110.796875 -46.59375 C 112.347656 -49.53125 114.242188 -50.1875 116.484375 -48.5625 C 118.722656 -46.9375 118.679688 -44.269531 116.359375 -40.5625 C 111.722656 -33.300781 107.394531 -26 103.375 -18.65625 C 99.363281 -11.320312 95.269531 -4.019531 91.09375 3.25 C 88.15625 7.570312 84.523438 8.5 80.203125 6.03125 C 66.296875 -0.613281 55.828125 -8.726562 48.796875 -18.3125 C 41.765625 -27.894531 38.25 -39.945312 38.25 -54.46875 Z M 71.859375 -329.625 C 89.015625 -329.625 96.816406 -321.359375 95.265625 -304.828125 C 94.335938 -296.484375 89.125 -288.097656 79.625 -279.671875 C 70.125 -271.242188 62.59375 -267.109375 57.03125 -267.265625 C 51.457031 -267.265625 47.203125 -271.671875 44.265625 -280.484375 C 41.335938 -289.296875 40.179688 -297.410156 40.796875 -304.828125 C 41.265625 -311.929688 44.703125 -317.835938 51.109375 -322.546875 C 57.523438 -327.265625 64.441406 -329.625 71.859375 -329.625 Z M 71.859375 -329.625 "/></g></g><g transform="translate(1120.995005, 371.712727)"><g><path d="M 90.859375 -173.859375 L 90.640625 -61.421875 C 90.640625 -56.484375 91.875 -53.316406 94.34375 -51.921875 L 111.03125 -42.1875 C 114.582031 -40.019531 119.992188 -43.804688 127.265625 -53.546875 C 128.804688 -55.554688 130.734375 -55.976562 133.046875 -54.8125 C 135.367188 -53.65625 135.375 -51.6875 133.0625 -48.90625 C 116.832031 -30.832031 104.390625 -13.0625 95.734375 4.40625 C 93.109375 7.957031 90.25 7.957031 87.15625 4.40625 C 78.5 -5.632812 70.421875 -13.28125 62.921875 -18.53125 C 55.429688 -23.789062 44.425781 -28.125 29.90625 -31.53125 C 27.125 -32.300781 25.734375 -33.535156 25.734375 -35.234375 C 25.734375 -36.929688 26.738281 -38.164062 28.75 -38.9375 C 39.101562 -40.644531 44.203125 -49.53125 44.046875 -65.59375 L 44.046875 -163.65625 C 44.046875 -179.414062 41.109375 -189.070312 35.234375 -192.625 C 28.429688 -197.101562 22.867188 -195.484375 18.546875 -187.765625 C 16.847656 -184.515625 14.914062 -183.738281 12.75 -185.4375 C 10.582031 -187.144531 10.660156 -189.851562 12.984375 -193.5625 C 17.460938 -200.664062 21.75 -207.925781 25.84375 -215.34375 C 29.9375 -222.757812 34.148438 -230.175781 38.484375 -237.59375 C 41.109375 -242.226562 44.582031 -243.082031 48.90625 -240.15625 C 71.625 -229.175781 85.222656 -215.265625 89.703125 -198.421875 C 90.171875 -196.878906 91.097656 -195.914062 92.484375 -195.53125 C 93.878906 -195.144531 95.117188 -195.644531 96.203125 -197.03125 L 131.890625 -238.0625 C 132.816406 -238.988281 133.898438 -239.410156 135.140625 -239.328125 C 136.378906 -239.253906 137.382812 -238.601562 138.15625 -237.375 L 162.5 -190.78125 C 163.113281 -189.382812 162.957031 -188.066406 162.03125 -186.828125 L 134.21875 -153.453125 C 133.132812 -152.367188 131.9375 -151.90625 130.625 -152.0625 C 129.3125 -152.21875 128.421875 -152.914062 127.953125 -154.15625 L 109.171875 -188.921875 C 108.554688 -189.847656 107.59375 -190.425781 106.28125 -190.65625 C 104.96875 -190.882812 103.769531 -190.460938 102.6875 -189.390625 L 91.796875 -176.171875 C 91.171875 -175.554688 90.859375 -174.785156 90.859375 -173.859375 Z M 90.859375 -173.859375 "/></g></g></g></g></g></svg>