<svg xmlns="http://www.w3.org/2000/svg" xmlns:xlink="http://www.w3.org/1999/xlink" width="1905" zoomAndPan="magnify" viewBox="0 0 1428.75 749.999995" height="1000" preserveAspectRatio="xMidYMid meet" version="1.0"><defs><clipPath id="31f51ab7e8"><path d="M 0 0.0664062 L 1428.5 0.0664062 L 1428.5 749.839844 L 0 749.839844 Z M 0 0.0664062 " clip-rule="nonzero"/></clipPath><clipPath id="788cc9ffae"><path d="M 0.511719 0.0664062 L 1428.148438 0.0664062 L 1428.148438 749.839844 L 0.511719 749.839844 Z M 0.511719 0.0664062 " clip-rule="nonzero"/></clipPath><clipPath id="4f7090c7d5"><rect x="0" width="1429" y="0" height="750"/></clipPath></defs><g clip-path="url(#31f51ab7e8)"><g transform="matrix(1, 0, 0, 1, 0, -0.000000000000021247)"><g clip-path="url(#4f7090c7d5)"><g clip-path="url(#788cc9ffae)"><path fill="#a1cfb7" d="M 968.96875 80.964844 C 929.042969 114.058594 900.191406 163.929688 908.496094 217.167969 C 912.617188 243.605469 923.417969 268.324219 930.703125 293.96875 C 939.167969 238.007812 959.113281 183.652344 991.335938 136.980469 C 994.214844 132.8125 1000.796875 136.476562 998.226562 141.003906 C 970.394531 189.890625 949.40625 243.621094 942.320312 299.640625 C 981.46875 272.976562 1016.953125 240.015625 1027.671875 192.152344 C 1034.402344 168.320312 1038.484375 143.796875 1046.113281 120.199219 C 1060.140625 82.671875 1079.320312 44.359375 1106.722656 15.074219 C 1058.34375 31.058594 1008.367188 48.285156 968.96875 80.964844 Z M 679.398438 491.269531 C 745.285156 436.65625 707.660156 333.574219 759.214844 271.328125 C 718.007812 289.5 691.457031 328.527344 672.175781 368.292969 C 652.539062 408.796875 629.667969 458.148438 645.28125 503.09375 C 670.550781 468.226562 688.121094 425.691406 694.210938 383.109375 C 694.753906 377.363281 700.621094 377.558594 700.289062 383.476562 C 698.039062 429.714844 681.464844 475.003906 652.871094 511.472656 C 661.519531 504.707031 671.191406 498.75 679.398438 491.269531 Z M 412.835938 534.988281 C 450.730469 524.464844 485.292969 502.714844 511.390625 473.320312 C 543.625 437.011719 555.105469 380.425781 596.554688 353.8125 C 546.761719 367.800781 495.640625 375.0625 450.535156 399.914062 C 409.773438 426.996094 395.621094 488.539062 384.832031 533.769531 C 400.851562 517.246094 412.503906 497.363281 428.042969 480.445312 C 446.15625 460.363281 468.398438 446.089844 491.027344 431.757812 C 494.816406 429.359375 497.941406 435.105469 494.472656 437.652344 C 473.308594 453.238281 451.59375 469.457031 434.699219 489.769531 C 421.902344 505.335938 411.308594 522.558594 398.773438 538.332031 C 403.496094 537.359375 408.195312 536.277344 412.835938 534.988281 Z M 648.8125 730.421875 C 691.148438 742.578125 736.917969 741.507812 778.972656 728.6875 C 808.144531 719.777344 833.292969 702.882812 861.25 691.207031 C 883.125 682.066406 905.664062 676.691406 928.847656 674.058594 C 903.15625 672.777344 877.90625 669.207031 852.84375 662.367188 C 821.050781 655.011719 792.507812 636.984375 760 632.742188 C 708.753906 627.992188 637.21875 662.429688 610.335938 706.429688 C 634.109375 711.828125 657.582031 698.835938 680.851562 695.058594 C 709.445312 688.871094 738.359375 686.164062 767.519531 684.21875 C 769.328125 684.097656 769.242188 686.777344 767.519531 686.988281 C 735.539062 690.839844 703.671875 698.234375 672.632812 706.734375 C 654.371094 711.71875 637.464844 718.621094 618.074219 718.867188 C 627.929688 723.628906 638.265625 727.429688 648.8125 730.421875 Z M 1072.863281 508.519531 C 1125.621094 486.839844 1173.136719 454.164062 1223.386719 427.414062 C 1198.203125 431.546875 1172.832031 434.253906 1147.3125 430.835938 C 1116.222656 426.652344 1086.371094 415.613281 1055.082031 412.734375 C 1024.507812 409.929688 991.878906 413.238281 963.273438 424.890625 C 939.367188 433.457031 926.226562 456.070312 906.589844 470.503906 C 978.738281 481.28125 1054.011719 471.878906 1122.914062 448.183594 C 1126.136719 447.050781 1127.28125 451.9375 1124.292969 453.191406 C 1057.125 481.378906 984.273438 490.816406 912.039062 482.71875 C 951.066406 528.578125 1019.082031 528.921875 1072.863281 508.519531 Z M 1231.742188 275.179688 C 1309.488281 239.214844 1347.804688 158.34375 1405.691406 99.75 C 1283.023438 113.582031 1114.007812 166.425781 1055.070312 283.988281 C 1084.292969 283.078125 1110.953125 269.027344 1136.71875 256.5 C 1167.144531 241.417969 1197.488281 225.765625 1226.476562 208.035156 C 1229.195312 206.375 1231.472656 210.472656 1228.9375 212.257812 C 1179.585938 245.996094 1128.882812 279.804688 1070.082031 294.472656 C 1124.402344 300.574219 1181.996094 298.136719 1231.742188 275.179688 Z M 1133.605469 5.464844 C 1111.953125 14.742188 1100.460938 37.910156 1089.816406 57.609375 C 1076.875 81.566406 1064.542969 105.792969 1057.25 132.132812 C 1044.304688 178.875 1040.566406 228.769531 1005.90625 265.9375 C 984.261719 288.148438 958.238281 308.804688 931.601562 324.371094 C 923.125 348.621094 915.507812 373.460938 903.042969 396.027344 C 949.492188 363.816406 994.585938 329.585938 1038.277344 293.832031 C 1094.726562 153.800781 1284.648438 98.707031 1422.144531 85.871094 C 1427.410156 85.390625 1430.128906 92.824219 1426.449219 96.21875 C 1382.929688 136.109375 1352.539062 187.464844 1312.023438 230 C 1246.210938 305.152344 1137.421875 321.046875 1044.21875 298.394531 C 973.128906 363.605469 893.089844 418.59375 811 469.011719 C 837.453125 465.410156 864.203125 467.230469 890.691406 469.40625 C 902.320312 462.296875 915.9375 446.730469 925.117188 437.613281 C 956.554688 406.855469 1004.761719 400.554688 1046.949219 402.226562 C 1077.859375 404.0625 1106.796875 414.175781 1136.804688 420.707031 C 1171.121094 428.1875 1206.457031 423.195312 1241.007812 419.183594 C 1262.328125 418.382812 1225.304688 439.460938 1218.847656 442.855469 C 1181.183594 463.980469 1144.421875 486.855469 1105.933594 506.464844 C 1033.675781 544.632812 939.476562 548.890625 888.992188 474.304688 C 856.671875 474.367188 823.957031 475.042969 792.25 480.457031 C 661.433594 557.464844 525.859375 627.804688 384.09375 682.472656 C 453.265625 700.3125 524.320312 708.925781 595.757812 708.59375 C 623.488281 650.078125 713.875 608.144531 776.609375 623.09375 C 803.222656 629.898438 827.769531 643.714844 854.148438 651.601562 C 885.070312 660.84375 920.160156 670.035156 952.359375 672.296875 C 955.027344 672.175781 955.226562 676.382812 952.359375 676.691406 C 919.46875 679.925781 886.285156 689.546875 856.402344 703.585938 C 828.175781 716.835938 802.449219 733.078125 772.019531 741.335938 C 712.457031 756.308594 643.765625 754.09375 592.902344 715.691406 C 517.6875 717.121094 441.957031 708.398438 369.601562 687.726562 C 254.351562 728.671875 127.964844 753.011719 6.121094 731.144531 C -3.796875 729.3125 0.609375 714.894531 10.21875 716.246094 C 74.074219 725.242188 137.660156 724.601562 200.976562 715.53125 C 271.734375 677.464844 332.972656 619.402344 369.390625 547.300781 C 375.074219 499.21875 398.035156 420.203125 439.695312 392.078125 C 461.621094 377.496094 488.234375 371.074219 513.34375 364.371094 C 545.210938 355.867188 577.277344 348.570312 609.769531 342.921875 C 615.34375 341.988281 622.46875 349.222656 616.785156 353 C 588.742188 366.042969 572.996094 395.351562 559.570312 421.644531 C 546.640625 446.976562 532.910156 470.910156 512.765625 491.269531 C 477.703125 526.226562 430.28125 550.746094 380.613281 554.660156 C 343.28125 619.269531 290.878906 675.003906 225.582031 711.582031 C 306.492188 697.433594 384.636719 670.046875 460.082031 638.019531 C 504.363281 619.132812 547.917969 598.4375 591.019531 576.882812 C 611.738281 563.136719 624.105469 540.71875 638.464844 521.082031 C 611.679688 469.765625 635.71875 411.949219 659.429688 364.332031 C 682.253906 318.488281 721.796875 269.015625 774.628906 256.488281 C 779.082031 254.839844 784.769531 260.03125 780.3125 264.414062 C 706.835938 339.453125 777.792969 476.394531 649.746094 522.867188 C 641.046875 534.679688 634.144531 547.929688 625.125 559.617188 C 710.402344 516.085938 794.007812 469.074219 873.738281 415.984375 C 900.570312 387.179688 908.496094 353.789062 922.941406 318.5625 C 908.472656 260.96875 876.234375 205.578125 903.265625 146 C 940.472656 56.207031 1038.25 21.351562 1126.554688 1.972656 C 1128.117188 1.296875 1129.632812 0.53125 1131.292969 -0.03125 C 1134.46875 -1.140625 1136.757812 4.113281 1133.605469 5.464844 " fill-opacity="1" fill-rule="nonzero"/></g></g></g></g></svg>