<svg xmlns="http://www.w3.org/2000/svg" xmlns:xlink="http://www.w3.org/1999/xlink" width="1905" zoomAndPan="magnify" viewBox="0 0 1428.75 749.999995" height="1000" preserveAspectRatio="xMidYMid meet" version="1.0"><defs><filter x="0%" y="0%" width="100%" height="100%" id="0e3f065f16"><feColorMatrix values="0 0 0 0 1 0 0 0 0 1 0 0 0 0 1 0 0 0 1 0" color-interpolation-filters="sRGB"/></filter><g/><clipPath id="af38cc3a01"><path d="M 0 0.0664062 L 1428.5 0.0664062 L 1428.5 749.933594 L 0 749.933594 Z M 0 0.0664062 " clip-rule="nonzero"/></clipPath><mask id="837c5cb301"><g filter="url(#0e3f065f16)"><rect x="-142.875" width="1714.5" fill="#000000" y="-74.999999" height="899.999994" fill-opacity="0.4"/></g></mask><clipPath id="ddc9708e6b"><path d="M 0 0.0664062 L 1428.230469 0.0664062 L 1428.230469 749.839844 L 0 749.839844 Z M 0 0.0664062 " clip-rule="nonzero"/></clipPath><clipPath id="a972a5edff"><path d="M 0.511719 0.0664062 L 1428.148438 0.0664062 L 1428.148438 749.839844 L 0.511719 749.839844 Z M 0.511719 0.0664062 " clip-rule="nonzero"/></clipPath><clipPath id="814e20ea68"><rect x="0" width="1429" y="0" height="750"/></clipPath><clipPath id="d5c17ac3a0"><rect x="0" width="1429" y="0" height="750"/></clipPath><clipPath id="6a075a78be"><rect x="0" width="1297" y="0" height="494"/></clipPath></defs><g clip-path="url(#af38cc3a01)"><g mask="url(#837c5cb301)"><g transform="matrix(1, 0, 0, 1, 0, -0.000000000000021247)"><g clip-path="url(#d5c17ac3a0)"><g clip-path="url(#ddc9708e6b)"><g transform="matrix(1, 0, 0, 1, 0, -0.000000000000021247)"><g clip-path="url(#814e20ea68)"><g clip-path="url(#a972a5edff)"><path fill="#a1cfb7" d="M 968.96875 80.964844 C 929.042969 114.058594 900.191406 163.929688 908.496094 217.167969 C 912.617188 243.605469 923.417969 268.324219 930.703125 293.96875 C 939.167969 238.007812 959.113281 183.652344 991.335938 136.980469 C 994.214844 132.8125 1000.796875 136.476562 998.226562 141.003906 C 970.394531 189.890625 949.40625 243.621094 942.320312 299.640625 C 981.46875 272.976562 1016.953125 240.015625 1027.671875 192.152344 C 1034.402344 168.320312 1038.484375 143.796875 1046.113281 120.199219 C 1060.140625 82.671875 1079.320312 44.359375 1106.722656 15.074219 C 1058.34375 31.058594 1008.367188 48.285156 968.96875 80.964844 Z M 679.398438 491.269531 C 745.285156 436.65625 707.660156 333.574219 759.214844 271.328125 C 718.007812 289.5 691.457031 328.527344 672.175781 368.292969 C 652.539062 408.796875 629.667969 458.148438 645.28125 503.09375 C 670.550781 468.226562 688.121094 425.691406 694.210938 383.109375 C 694.753906 377.363281 700.621094 377.558594 700.289062 383.476562 C 698.039062 429.714844 681.464844 475.003906 652.871094 511.472656 C 661.519531 504.707031 671.191406 498.75 679.398438 491.269531 Z M 412.835938 534.988281 C 450.730469 524.464844 485.292969 502.714844 511.390625 473.320312 C 543.625 437.011719 555.105469 380.425781 596.554688 353.8125 C 546.761719 367.800781 495.640625 375.0625 450.535156 399.914062 C 409.773438 426.996094 395.621094 488.539062 384.832031 533.769531 C 400.851562 517.246094 412.503906 497.363281 428.042969 480.445312 C 446.15625 460.363281 468.398438 446.089844 491.027344 431.757812 C 494.816406 429.359375 497.941406 435.105469 494.472656 437.652344 C 473.308594 453.238281 451.59375 469.457031 434.699219 489.769531 C 421.902344 505.335938 411.308594 522.558594 398.773438 538.332031 C 403.496094 537.359375 408.195312 536.277344 412.835938 534.988281 Z M 648.8125 730.421875 C 691.148438 742.578125 736.917969 741.507812 778.972656 728.6875 C 808.144531 719.777344 833.292969 702.882812 861.25 691.207031 C 883.125 682.066406 905.664062 676.691406 928.847656 674.058594 C 903.15625 672.777344 877.90625 669.207031 852.84375 662.367188 C 821.050781 655.011719 792.507812 636.984375 760 632.742188 C 708.753906 627.992188 637.21875 662.429688 610.335938 706.429688 C 634.109375 711.828125 657.582031 698.835938 680.851562 695.058594 C 709.445312 688.871094 738.359375 686.164062 767.519531 684.21875 C 769.328125 684.097656 769.242188 686.777344 767.519531 686.988281 C 735.539062 690.839844 703.671875 698.234375 672.632812 706.734375 C 654.371094 711.71875 637.464844 718.621094 618.074219 718.867188 C 627.929688 723.628906 638.265625 727.429688 648.8125 730.421875 Z M 1072.863281 508.519531 C 1125.621094 486.839844 1173.136719 454.164062 1223.386719 427.414062 C 1198.203125 431.546875 1172.832031 434.253906 1147.3125 430.835938 C 1116.222656 426.652344 1086.371094 415.613281 1055.082031 412.734375 C 1024.507812 409.929688 991.878906 413.238281 963.273438 424.890625 C 939.367188 433.457031 926.226562 456.070312 906.589844 470.503906 C 978.738281 481.28125 1054.011719 471.878906 1122.914062 448.183594 C 1126.136719 447.050781 1127.28125 451.9375 1124.292969 453.191406 C 1057.125 481.378906 984.273438 490.816406 912.039062 482.71875 C 951.066406 528.578125 1019.082031 528.921875 1072.863281 508.519531 Z M 1231.742188 275.179688 C 1309.488281 239.214844 1347.804688 158.34375 1405.691406 99.75 C 1283.023438 113.582031 1114.007812 166.425781 1055.070312 283.988281 C 1084.292969 283.078125 1110.953125 269.027344 1136.71875 256.5 C 1167.144531 241.417969 1197.488281 225.765625 1226.476562 208.035156 C 1229.195312 206.375 1231.472656 210.472656 1228.9375 212.257812 C 1179.585938 245.996094 1128.882812 279.804688 1070.082031 294.472656 C 1124.402344 300.574219 1181.996094 298.136719 1231.742188 275.179688 Z M 1133.605469 5.464844 C 1111.953125 14.742188 1100.460938 37.910156 1089.816406 57.609375 C 1076.875 81.566406 1064.542969 105.792969 1057.25 132.132812 C 1044.304688 178.875 1040.566406 228.769531 1005.90625 265.9375 C 984.261719 288.148438 958.238281 308.804688 931.601562 324.371094 C 923.125 348.621094 915.507812 373.460938 903.042969 396.027344 C 949.492188 363.816406 994.585938 329.585938 1038.277344 293.832031 C 1094.726562 153.800781 1284.648438 98.707031 1422.144531 85.871094 C 1427.410156 85.390625 1430.128906 92.824219 1426.449219 96.21875 C 1382.929688 136.109375 1352.539062 187.464844 1312.023438 230 C 1246.210938 305.152344 1137.421875 321.046875 1044.21875 298.394531 C 973.128906 363.605469 893.089844 418.59375 811 469.011719 C 837.453125 465.410156 864.203125 467.230469 890.691406 469.40625 C 902.320312 462.296875 915.9375 446.730469 925.117188 437.613281 C 956.554688 406.855469 1004.761719 400.554688 1046.949219 402.226562 C 1077.859375 404.0625 1106.796875 414.175781 1136.804688 420.707031 C 1171.121094 428.1875 1206.457031 423.195312 1241.007812 419.183594 C 1262.328125 418.382812 1225.304688 439.460938 1218.847656 442.855469 C 1181.183594 463.980469 1144.421875 486.855469 1105.933594 506.464844 C 1033.675781 544.632812 939.476562 548.890625 888.992188 474.304688 C 856.671875 474.367188 823.957031 475.042969 792.25 480.457031 C 661.433594 557.464844 525.859375 627.804688 384.09375 682.472656 C 453.265625 700.3125 524.320312 708.925781 595.757812 708.59375 C 623.488281 650.078125 713.875 608.144531 776.609375 623.09375 C 803.222656 629.898438 827.769531 643.714844 854.148438 651.601562 C 885.070312 660.84375 920.160156 670.035156 952.359375 672.296875 C 955.027344 672.175781 955.226562 676.382812 952.359375 676.691406 C 919.46875 679.925781 886.285156 689.546875 856.402344 703.585938 C 828.175781 716.835938 802.449219 733.078125 772.019531 741.335938 C 712.457031 756.308594 643.765625 754.09375 592.902344 715.691406 C 517.6875 717.121094 441.957031 708.398438 369.601562 687.726562 C 254.351562 728.671875 127.964844 753.011719 6.121094 731.144531 C -3.796875 729.3125 0.609375 714.894531 10.21875 716.246094 C 74.074219 725.242188 137.660156 724.601562 200.976562 715.53125 C 271.734375 677.464844 332.972656 619.402344 369.390625 547.300781 C 375.074219 499.21875 398.035156 420.203125 439.695312 392.078125 C 461.621094 377.496094 488.234375 371.074219 513.34375 364.371094 C 545.210938 355.867188 577.277344 348.570312 609.769531 342.921875 C 615.34375 341.988281 622.46875 349.222656 616.785156 353 C 588.742188 366.042969 572.996094 395.351562 559.570312 421.644531 C 546.640625 446.976562 532.910156 470.910156 512.765625 491.269531 C 477.703125 526.226562 430.28125 550.746094 380.613281 554.660156 C 343.28125 619.269531 290.878906 675.003906 225.582031 711.582031 C 306.492188 697.433594 384.636719 670.046875 460.082031 638.019531 C 504.363281 619.132812 547.917969 598.4375 591.019531 576.882812 C 611.738281 563.136719 624.105469 540.71875 638.464844 521.082031 C 611.679688 469.765625 635.71875 411.949219 659.429688 364.332031 C 682.253906 318.488281 721.796875 269.015625 774.628906 256.488281 C 779.082031 254.839844 784.769531 260.03125 780.3125 264.414062 C 706.835938 339.453125 777.792969 476.394531 649.746094 522.867188 C 641.046875 534.679688 634.144531 547.929688 625.125 559.617188 C 710.402344 516.085938 794.007812 469.074219 873.738281 415.984375 C 900.570312 387.179688 908.496094 353.789062 922.941406 318.5625 C 908.472656 260.96875 876.234375 205.578125 903.265625 146 C 940.472656 56.207031 1038.25 21.351562 1126.554688 1.972656 C 1128.117188 1.296875 1129.632812 0.53125 1131.292969 -0.03125 C 1134.46875 -1.140625 1136.757812 4.113281 1133.605469 5.464844 " fill-opacity="1" fill-rule="nonzero"/></g></g></g></g></g></g></g></g><g transform="matrix(1, 0, 0, 1, 0, 218)"><g clip-path="url(#6a075a78be)"><g fill="#d9d9d9" fill-opacity="1"><g transform="translate(0.000000000000198922, 371.692709)"><g><path d="M 130.75 -128.203125 C 131.0625 -136.859375 129.015625 -142.226562 124.609375 -144.3125 C 120.203125 -146.40625 110.890625 -145.828125 96.671875 -142.578125 C 74.722656 -137.328125 55.09375 -142.195312 37.78125 -157.1875 C 20.476562 -172.175781 11.828125 -194.507812 11.828125 -224.1875 C 11.984375 -253.707031 22.722656 -279.207031 44.046875 -300.6875 C 65.378906 -322.175781 90.878906 -332.921875 120.546875 -332.921875 C 133.992188 -332.921875 148.597656 -329.59375 164.359375 -322.9375 C 180.128906 -316.289062 193.578125 -306.398438 204.703125 -293.265625 C 205.628906 -292.035156 206.632812 -291.492188 207.71875 -291.640625 C 208.800781 -291.796875 209.726562 -292.492188 210.5 -293.734375 C 217.300781 -304.859375 226.070312 -314.207031 236.8125 -321.78125 C 247.5625 -329.351562 261.820312 -332.910156 279.59375 -332.453125 C 302.625 -331.367188 323.253906 -317.148438 341.484375 -289.796875 C 342.421875 -288.398438 343.582031 -287.703125 344.96875 -287.703125 C 346.363281 -287.703125 347.445312 -288.476562 348.21875 -290.03125 C 354.707031 -302.082031 362.894531 -311.972656 372.78125 -319.703125 C 382.675781 -327.429688 395.046875 -331.296875 409.890625 -331.296875 C 428.898438 -330.984375 444.585938 -325.1875 456.953125 -313.90625 C 469.316406 -302.625 478.28125 -283.691406 483.84375 -257.109375 C 487.238281 -238.710938 494.347656 -228.972656 505.171875 -227.890625 C 508.253906 -227.734375 509.910156 -226.421875 510.140625 -223.953125 C 510.378906 -221.484375 508.488281 -219.628906 504.46875 -218.390625 C 474.488281 -208.191406 453.851562 -191.847656 442.5625 -169.359375 C 431.28125 -146.867188 431.75 -118.234375 443.96875 -83.453125 C 449.375 -67.691406 457.140625 -56.601562 467.265625 -50.1875 C 477.390625 -43.78125 488.476562 -44.285156 500.53125 -51.703125 C 505.007812 -54.328125 508.367188 -54.285156 510.609375 -51.578125 C 512.859375 -48.878906 512.4375 -46.210938 509.34375 -43.578125 C 498.832031 -35.234375 488.4375 -26.925781 478.15625 -18.65625 C 467.875 -10.394531 457.554688 -2.164062 447.203125 6.03125 C 445.503906 7.257812 443.882812 7.257812 442.34375 6.03125 C 409.414062 -20.394531 389.59375 -49.757812 382.875 -82.0625 C 376.15625 -114.363281 397.445312 -152.617188 446.75 -196.828125 C 447.832031 -197.910156 448.332031 -198.992188 448.25 -200.078125 C 448.175781 -201.160156 447.441406 -202.085938 446.046875 -202.859375 C 435.234375 -210.117188 427.273438 -228.742188 422.171875 -258.734375 C 416.765625 -288.398438 404.707031 -303.390625 386 -303.703125 C 372.707031 -304.015625 361.425781 -294.273438 352.15625 -274.484375 C 351.539062 -273.410156 351.539062 -272.332031 352.15625 -271.25 C 358.1875 -258.414062 362.550781 -244.113281 365.25 -228.34375 C 367.957031 -212.582031 368.078125 -195.894531 365.609375 -178.28125 C 359.421875 -135.625 350.257812 -103.4375 338.125 -81.71875 C 326 -60.007812 311.585938 -38.332031 294.890625 -16.6875 C 272.785156 10.976562 251.921875 13.988281 232.296875 -7.65625 C 226.734375 -13.832031 220.898438 -17.847656 214.796875 -19.703125 C 208.691406 -21.554688 201.695312 -19.394531 193.8125 -13.21875 C 190.875 -10.738281 188.363281 -10.460938 186.28125 -12.390625 C 184.195312 -14.328125 184.3125 -16.765625 186.625 -19.703125 C 206.40625 -47.210938 222.128906 -62.898438 233.796875 -66.765625 C 245.472656 -70.628906 256.875 -67.382812 268 -57.03125 C 277.113281 -48.53125 285.492188 -43.96875 293.140625 -43.34375 C 300.796875 -42.726562 306.789062 -48.453125 311.125 -60.515625 C 319.46875 -83.691406 322.441406 -116.109375 320.046875 -157.765625 C 317.648438 -199.421875 309.222656 -231.375 294.765625 -253.625 C 280.316406 -275.882812 266.5625 -288.984375 253.5 -292.921875 C 240.445312 -296.859375 228.585938 -293.421875 217.921875 -282.609375 C 216.378906 -281.054688 216.300781 -279.429688 217.6875 -277.734375 C 236.082031 -252.234375 245.976562 -222.710938 247.375 -189.171875 C 248.300781 -161.660156 242.96875 -135.269531 231.375 -110 C 219.78125 -84.726562 204.863281 -60.503906 186.625 -37.328125 C 166.6875 -11.972656 147.789062 2.554688 129.9375 6.265625 C 112.09375 9.972656 95.75 0.929688 80.90625 -20.859375 C 67.925781 -40.335938 54.710938 -42.734375 41.265625 -28.046875 C 38.015625 -25.265625 35.113281 -25.1875 32.5625 -27.8125 C 30.019531 -30.445312 30.367188 -33.460938 33.609375 -36.859375 C 75.804688 -79.828125 108.960938 -85.46875 133.078125 -53.78125 C 136.941406 -48.53125 140.609375 -43.660156 144.078125 -39.171875 C 147.554688 -34.691406 152.773438 -32.609375 159.734375 -32.921875 C 168.703125 -33.234375 178.128906 -43.046875 188.015625 -62.359375 C 197.910156 -81.679688 202.859375 -106.023438 202.859375 -135.390625 C 202.546875 -173.878906 192.5 -207.613281 172.71875 -236.59375 C 152.9375 -265.570312 130.296875 -281.453125 104.796875 -284.234375 C 79.285156 -286.859375 59.1875 -282.066406 44.5 -269.859375 C 29.820312 -257.648438 22.71875 -243.195312 23.1875 -226.5 C 23.644531 -209.5 28.160156 -195.894531 36.734375 -185.6875 C 45.316406 -175.488281 61.203125 -173.40625 84.390625 -179.4375 C 129.054688 -190.875 148.453125 -174.414062 142.578125 -130.0625 C 141.960938 -125.425781 139.835938 -123.066406 136.203125 -122.984375 C 132.566406 -122.910156 130.75 -124.648438 130.75 -128.203125 Z M 130.75 -128.203125 "/></g></g><g transform="translate(525.097427, 371.692709)"><g><path d="M 38.25 -54.484375 L 36.625 -181.53125 C 36.625 -184.46875 36.160156 -186.863281 35.234375 -188.71875 C 31.523438 -194.738281 28.359375 -196.207031 25.734375 -193.125 L 16.453125 -183.609375 C 13.984375 -180.828125 11.628906 -180.519531 9.390625 -182.6875 C 7.148438 -184.851562 7.5 -187.867188 10.4375 -191.734375 C 17.238281 -200.234375 23.34375 -208.734375 28.75 -217.234375 C 34.15625 -225.734375 39.71875 -234.15625 45.4375 -242.5 C 47.914062 -245.4375 50.773438 -245.359375 54.015625 -242.265625 C 60.503906 -234.378906 66.835938 -227.460938 73.015625 -221.515625 C 79.203125 -215.566406 88.015625 -209.269531 99.453125 -202.625 C 102.703125 -201.382812 104.132812 -199.914062 103.75 -198.21875 C 103.363281 -196.519531 102.316406 -195.59375 100.609375 -195.4375 C 96.597656 -193.894531 93.046875 -191.226562 89.953125 -187.4375 C 86.859375 -183.65625 85.3125 -177.359375 85.3125 -168.546875 L 85.3125 -70.484375 C 85.3125 -54.710938 88.25 -45.050781 94.125 -41.5 C 100.925781 -37.476562 106.488281 -39.175781 110.8125 -46.59375 C 112.363281 -49.53125 114.257812 -50.1875 116.5 -48.5625 C 118.738281 -46.945312 118.695312 -44.285156 116.375 -40.578125 C 111.738281 -33.304688 107.410156 -26 103.390625 -18.65625 C 99.378906 -11.320312 95.285156 -4.019531 91.109375 3.25 C 88.171875 7.570312 84.539062 8.5 80.21875 6.03125 C 66.300781 -0.613281 55.828125 -8.726562 48.796875 -18.3125 C 41.765625 -27.894531 38.25 -39.953125 38.25 -54.484375 Z M 71.875 -329.671875 C 89.03125 -329.671875 96.832031 -321.398438 95.28125 -304.859375 C 94.351562 -296.515625 89.132812 -288.128906 79.625 -279.703125 C 70.125 -271.285156 62.59375 -267.15625 57.03125 -267.3125 C 51.46875 -267.3125 47.21875 -271.710938 44.28125 -280.515625 C 41.34375 -289.328125 40.179688 -297.441406 40.796875 -304.859375 C 41.265625 -311.972656 44.703125 -317.882812 51.109375 -322.59375 C 57.523438 -327.3125 64.445312 -329.671875 71.875 -329.671875 Z M 71.875 -329.671875 "/></g></g><g transform="translate(654.691009, 371.692709)"><g><path d="M 93.890625 -182.21875 L 93.65625 -83.921875 C 93.5 -58.734375 98.140625 -44.4375 107.578125 -41.03125 C 108.648438 -40.101562 109.1875 -39.019531 109.1875 -37.78125 C 109.1875 -36.550781 108.648438 -35.550781 107.578125 -34.78125 C 93.972656 -24.726562 82.6875 -10.894531 73.71875 6.71875 C 72.789062 8.113281 71.59375 8.8125 70.125 8.8125 C 68.65625 8.8125 67.535156 8.113281 66.765625 6.71875 C 57.804688 -10.738281 46.0625 -24.492188 31.53125 -34.546875 C 30.601562 -35.472656 30.140625 -36.550781 30.140625 -37.78125 C 30.140625 -39.019531 30.679688 -40.101562 31.765625 -41.03125 C 42.117188 -44.4375 47.140625 -58.734375 46.828125 -83.921875 L 46.828125 -165.765625 C 46.828125 -181.523438 43.890625 -191.179688 38.015625 -194.734375 C 31.210938 -199.222656 25.648438 -197.601562 21.328125 -189.875 C 19.628906 -186.625 17.660156 -185.734375 15.421875 -187.203125 C 13.179688 -188.671875 13.296875 -191.492188 15.765625 -195.671875 C 20.242188 -202.773438 24.53125 -210.035156 28.625 -217.453125 C 32.726562 -224.878906 36.941406 -232.300781 41.265625 -239.71875 C 43.734375 -244.195312 47.210938 -245.125 51.703125 -242.5 L 51.9375 -242.265625 C 74.1875 -231.296875 87.628906 -217.695312 92.265625 -201.46875 C 92.734375 -199.914062 93.582031 -199.0625 94.8125 -198.90625 C 96.050781 -198.445312 97.289062 -198.601562 98.53125 -199.375 C 106.101562 -205.863281 114.097656 -212.859375 122.515625 -220.359375 C 130.941406 -227.859375 136.78125 -234.3125 140.03125 -239.71875 C 142.5 -244.039062 145.898438 -244.96875 150.234375 -242.5 C 172.484375 -231.519531 186.003906 -218.148438 190.796875 -202.390625 C 191.421875 -200.222656 192.347656 -199.140625 193.578125 -199.140625 C 194.816406 -199.140625 195.898438 -199.601562 196.828125 -200.53125 C 205.171875 -207.332031 213.398438 -214.40625 221.515625 -221.75 C 229.628906 -229.09375 235.3125 -236.007812 238.5625 -242.5 C 240.257812 -246.519531 243.039062 -246.441406 246.90625 -242.265625 C 256.175781 -232.523438 264.132812 -224.796875 270.78125 -219.078125 C 277.425781 -213.359375 288.632812 -209.109375 304.40625 -206.328125 C 306.71875 -205.867188 307.953125 -204.863281 308.109375 -203.3125 C 308.109375 -200.6875 307.257812 -199.296875 305.5625 -199.140625 C 301.539062 -197.597656 297.984375 -194.929688 294.890625 -191.140625 C 291.796875 -187.359375 290.25 -181.0625 290.25 -172.25 L 290.25 -71.40625 C 290.25 -55.644531 293.1875 -45.984375 299.0625 -42.421875 C 305.863281 -38.398438 311.429688 -40.101562 315.765625 -47.53125 C 317.304688 -50.46875 319.195312 -51.125 321.4375 -49.5 C 323.675781 -47.875 323.710938 -45.207031 321.546875 -41.5 C 316.910156 -34.238281 312.503906 -26.9375 308.328125 -19.59375 C 304.160156 -12.25 299.992188 -4.945312 295.828125 2.3125 C 293.035156 6.644531 289.554688 7.648438 285.390625 5.328125 C 271.328125 -1.472656 260.773438 -9.816406 253.734375 -19.703125 C 246.703125 -29.597656 243.1875 -41.421875 243.1875 -55.171875 L 243.421875 -176.65625 C 243.421875 -181.289062 242.1875 -184.457031 239.71875 -186.15625 L 220.25 -202.390625 C 218.382812 -203.628906 216.523438 -203.707031 214.671875 -202.625 C 204.628906 -194.894531 198.445312 -190.0625 196.125 -188.125 C 193.8125 -186.195312 192.65625 -184.078125 192.65625 -181.765625 L 192.421875 -83.921875 C 192.421875 -58.578125 197.132812 -44.28125 206.5625 -41.03125 C 207.644531 -39.945312 208.1875 -38.898438 208.1875 -37.890625 C 208.1875 -36.890625 207.644531 -35.851562 206.5625 -34.78125 C 192.957031 -25.039062 181.597656 -11.207031 172.484375 6.71875 C 171.554688 8.113281 170.316406 8.8125 168.765625 8.8125 C 167.222656 8.8125 166.222656 8.113281 165.765625 6.71875 C 156.953125 -10.433594 145.203125 -24.191406 130.515625 -34.546875 C 129.441406 -35.316406 128.90625 -36.316406 128.90625 -37.546875 C 128.90625 -38.785156 129.441406 -39.945312 130.515625 -41.03125 C 141.492188 -44.4375 146.597656 -58.734375 145.828125 -83.921875 L 145.59375 -165.765625 C 145.59375 -177.203125 142.65625 -186.859375 136.78125 -194.734375 C 129.519531 -204.316406 122.179688 -206.175781 114.765625 -200.3125 L 95.28125 -185.46875 L 94.359375 -184.078125 Z M 93.890625 -182.21875 "/></g></g><g transform="translate(991.54159, 371.692709)"><g><path d="M 38.25 -54.484375 L 36.625 -181.53125 C 36.625 -184.46875 36.160156 -186.863281 35.234375 -188.71875 C 31.523438 -194.738281 28.359375 -196.207031 25.734375 -193.125 L 16.453125 -183.609375 C 13.984375 -180.828125 11.628906 -180.519531 9.390625 -182.6875 C 7.148438 -184.851562 7.5 -187.867188 10.4375 -191.734375 C 17.238281 -200.234375 23.34375 -208.734375 28.75 -217.234375 C 34.15625 -225.734375 39.71875 -234.15625 45.4375 -242.5 C 47.914062 -245.4375 50.773438 -245.359375 54.015625 -242.265625 C 60.503906 -234.378906 66.835938 -227.460938 73.015625 -221.515625 C 79.203125 -215.566406 88.015625 -209.269531 99.453125 -202.625 C 102.703125 -201.382812 104.132812 -199.914062 103.75 -198.21875 C 103.363281 -196.519531 102.316406 -195.59375 100.609375 -195.4375 C 96.597656 -193.894531 93.046875 -191.226562 89.953125 -187.4375 C 86.859375 -183.65625 85.3125 -177.359375 85.3125 -168.546875 L 85.3125 -70.484375 C 85.3125 -54.710938 88.25 -45.050781 94.125 -41.5 C 100.925781 -37.476562 106.488281 -39.175781 110.8125 -46.59375 C 112.363281 -49.53125 114.257812 -50.1875 116.5 -48.5625 C 118.738281 -46.945312 118.695312 -44.285156 116.375 -40.578125 C 111.738281 -33.304688 107.410156 -26 103.390625 -18.65625 C 99.378906 -11.320312 95.285156 -4.019531 91.109375 3.25 C 88.171875 7.570312 84.539062 8.5 80.21875 6.03125 C 66.300781 -0.613281 55.828125 -8.726562 48.796875 -18.3125 C 41.765625 -27.894531 38.25 -39.953125 38.25 -54.484375 Z M 71.875 -329.671875 C 89.03125 -329.671875 96.832031 -321.398438 95.28125 -304.859375 C 94.351562 -296.515625 89.132812 -288.128906 79.625 -279.703125 C 70.125 -271.285156 62.59375 -267.15625 57.03125 -267.3125 C 51.46875 -267.3125 47.21875 -271.710938 44.28125 -280.515625 C 41.34375 -289.328125 40.179688 -297.441406 40.796875 -304.859375 C 41.265625 -311.972656 44.703125 -317.882812 51.109375 -322.59375 C 57.523438 -327.3125 64.445312 -329.671875 71.875 -329.671875 Z M 71.875 -329.671875 "/></g></g><g transform="translate(1121.135172, 371.692709)"><g><path d="M 90.875 -173.875 L 90.640625 -61.4375 C 90.640625 -56.488281 91.878906 -53.320312 94.359375 -51.9375 L 111.046875 -42.1875 C 114.597656 -40.03125 120.007812 -43.816406 127.28125 -53.546875 C 128.820312 -55.554688 130.75 -55.984375 133.0625 -54.828125 C 135.382812 -53.671875 135.390625 -51.703125 133.078125 -48.921875 C 116.847656 -30.835938 104.40625 -13.058594 95.75 4.40625 C 93.125 7.957031 90.265625 7.957031 87.171875 4.40625 C 78.515625 -5.644531 70.4375 -13.296875 62.9375 -18.546875 C 55.445312 -23.796875 44.4375 -28.125 29.90625 -31.53125 C 27.125 -32.300781 25.734375 -33.535156 25.734375 -35.234375 C 25.734375 -36.929688 26.738281 -38.171875 28.75 -38.953125 C 39.101562 -40.648438 44.203125 -49.535156 44.046875 -65.609375 L 44.046875 -163.671875 C 44.046875 -179.441406 41.109375 -189.101562 35.234375 -192.65625 C 28.429688 -197.132812 22.867188 -195.507812 18.546875 -187.78125 C 16.847656 -184.539062 14.914062 -183.769531 12.75 -185.46875 C 10.582031 -187.164062 10.660156 -189.867188 12.984375 -193.578125 C 17.460938 -200.691406 21.75 -207.957031 25.84375 -215.375 C 29.945312 -222.789062 34.160156 -230.207031 38.484375 -237.625 C 41.109375 -242.257812 44.585938 -243.113281 48.921875 -240.1875 C 71.640625 -229.207031 85.238281 -215.296875 89.71875 -198.453125 C 90.1875 -196.898438 91.113281 -195.929688 92.5 -195.546875 C 93.894531 -195.160156 95.132812 -195.664062 96.21875 -197.0625 L 131.90625 -238.09375 C 132.84375 -239.019531 133.925781 -239.441406 135.15625 -239.359375 C 136.394531 -239.285156 137.398438 -238.632812 138.171875 -237.40625 L 162.515625 -190.796875 C 163.128906 -189.410156 162.972656 -188.097656 162.046875 -186.859375 L 134.234375 -153.46875 C 133.148438 -152.382812 131.953125 -151.921875 130.640625 -152.078125 C 129.328125 -152.234375 128.4375 -152.929688 127.96875 -154.171875 L 109.1875 -188.9375 C 108.570312 -189.875 107.609375 -190.457031 106.296875 -190.6875 C 104.984375 -190.914062 103.785156 -190.488281 102.703125 -189.40625 L 91.8125 -176.1875 C 91.1875 -175.570312 90.875 -174.800781 90.875 -173.875 Z M 90.875 -173.875 "/></g></g></g></g></g></svg>